<svg width="136" height="132" viewBox="0 0 136 132" fill="none" xmlns="http://www.w3.org/2000/svg">
<path d="M57.4265 54.6368C56.2842 47.4467 56.6538 40.1223 57.9641 33.1338C64.5158 26.011 75.5697 21.9791 85.0781 20.9712C83.2638 15.6962 77.2161 6.12068 73.7554 1.34971C72.9491 0.24096 71.5715 -0.229418 70.2612 0.106566C48.2206 5.95269 17.7467 25.339 29.7414 62.7676C33.706 67.001 40.0225 69.3193 46.171 70.3609C47.0446 63.406 51.3788 57.5263 57.4265 54.6368Z" fill="#1599D6"/>
<path d="M66.0969 78.5923C69.3628 78.5923 72.0103 75.9448 72.0103 72.6789C72.0103 69.4131 69.3628 66.7656 66.0969 66.7656C62.8311 66.7656 60.1836 69.4131 60.1836 72.6789C60.1836 75.9448 62.8311 78.5923 66.0969 78.5923Z" fill="#1199D6"/>
<path d="M135.109 52.8227C122.745 33.6716 94.8919 10.6903 63.0069 33.638C59.9495 39.1818 59.9159 46.6742 61.159 53.2595C62.7381 52.8563 64.3845 52.6547 66.098 52.6547C71.1042 52.6547 75.64 54.469 79.1678 57.4929C85.6859 54.1667 92.8088 52.2179 99.8981 51.3108C108.701 55.3426 115.958 64.5822 119.856 73.3513C124.291 69.9915 131.548 61.2895 135.009 56.5185C135.815 55.4434 135.849 53.9651 135.109 52.8227Z" fill="#1199D6"/>
<path d="M100.939 56.2829C94.8239 55.1069 87.8018 57.3244 81.9556 60.4491C84.5763 63.8425 86.1219 68.0759 86.1219 72.6789C86.1219 75.4004 85.5843 78.0211 84.5763 80.3729C89.1121 85.2447 92.7408 90.9228 95.5294 96.8026C94.4207 106.412 87.869 116.189 80.7461 122.606C85.3155 125.798 95.8318 129.998 101.409 131.846C102.686 132.249 104.097 131.846 104.937 130.804C119.384 113.131 132.622 79.533 100.939 56.2829Z" fill="#1199D6"/>
<path d="M82.6621 83.9346C79.0671 89.2431 72.9857 92.7038 66.098 92.7038C64.8885 92.7038 63.6789 92.603 62.503 92.3678C59.3447 97.7435 55.3465 102.548 50.9115 106.748C41.4367 108.663 30.114 105.438 21.8152 100.633C20.1689 105.942 19.4297 117.264 19.4297 123.144C19.4297 124.488 20.2697 125.697 21.5128 126.201C42.7807 134.433 78.7983 136.651 91.1289 99.3227C90.457 93.7453 86.8955 88.3024 82.6621 83.9346Z" fill="#1599D6"/>
<path d="M46.139 74.2244C39.6208 72.9477 33.4051 70.495 27.6934 67.3703C22.956 58.9371 22.5192 47.1777 24.5015 37.8037C18.9242 37.9045 7.97104 40.6932 2.36009 42.5075C1.08334 42.9107 0.176184 44.0866 0.108987 45.4306C-1.13416 68.1767 7.87024 103.153 47.1805 103.354C52.0523 101.103 55.9497 96.3994 58.772 91.326C51.7835 88.5709 46.7437 82.0192 46.139 74.2244Z" fill="#1599D6"/>
</svg>
